<svg width="10" height="16" viewBox="0 0 10 16" fill="none" xmlns="http://www.w3.org/2000/svg">
<path d="M4.64637 15.4545V0.90909H5.57819V15.4545H4.64637ZM7.78274 5.27273C7.71456 4.69697 7.43804 4.25 6.95319 3.93182C6.46834 3.61364 5.87365 3.45455 5.1691 3.45455C4.65395 3.45455 4.20319 3.53788 3.81683 3.70455C3.43425 3.87121 3.13501 4.10038 2.9191 4.39205C2.70698 4.68371 2.60092 5.01515 2.60092 5.38636C2.60092 5.69697 2.67478 5.96401 2.82251 6.1875C2.97402 6.4072 3.16721 6.59091 3.40206 6.73864C3.6369 6.88258 3.88312 7.00189 4.14069 7.09659C4.39827 7.1875 4.63501 7.26136 4.85092 7.31818L6.03274 7.63636C6.33577 7.71591 6.67289 7.82576 7.0441 7.96591C7.4191 8.10606 7.77706 8.29735 8.11796 8.53977C8.46266 8.77841 8.74675 9.08523 8.97024 9.46023C9.19372 9.83523 9.30546 10.2955 9.30546 10.8409C9.30546 11.4697 9.14069 12.0379 8.81115 12.5455C8.48539 13.053 8.00812 13.4564 7.37933 13.7557C6.75433 14.0549 5.99486 14.2045 5.10092 14.2045C4.26759 14.2045 3.54599 14.0701 2.93615 13.8011C2.33009 13.5322 1.85281 13.1572 1.50433 12.6761C1.15963 12.1951 0.964555 11.6364 0.919101 11H2.37365C2.41152 11.4394 2.55925 11.803 2.81683 12.0909C3.07819 12.375 3.40774 12.5871 3.80546 12.7273C4.20698 12.8636 4.6388 12.9318 5.10092 12.9318C5.6388 12.9318 6.12175 12.8447 6.54978 12.6705C6.97781 12.4924 7.31683 12.2462 7.56683 11.9318C7.81683 11.6136 7.94183 11.2424 7.94183 10.8182C7.94183 10.4318 7.83387 10.1174 7.61796 9.875C7.40206 9.63258 7.11796 9.43561 6.76569 9.28409C6.41342 9.13258 6.03274 9 5.62365 8.88636L4.19183 8.47727C3.28274 8.21591 2.56304 7.8428 2.03274 7.35795C1.50243 6.87311 1.23728 6.23864 1.23728 5.45455C1.23728 4.80303 1.41342 4.23485 1.76569 3.75C2.12175 3.26136 2.59902 2.88258 3.19751 2.61364C3.79978 2.34091 4.47213 2.20455 5.21456 2.20455C5.96456 2.20455 6.63122 2.33901 7.21456 2.60795C7.79789 2.87311 8.26001 3.23674 8.60092 3.69886C8.94562 4.16098 9.12743 4.68561 9.14637 5.27273H7.78274Z" fill="#ACACAC"/>
</svg>
