<svg width="15" height="11" viewBox="0 0 15 11" fill="none" xmlns="http://www.w3.org/2000/svg">
<path d="M13.3898 0.333386L1.38984 0.333386C1.26834 0.333767 1.14925 0.367276 1.04538 0.430305C0.941518 0.493334 0.856808 0.583496 0.800371 0.691088C0.743936 0.798679 0.717911 0.919626 0.7251 1.04091C0.732288 1.16219 0.772418 1.27921 0.841168 1.37939L6.84117 10.0461C7.08984 10.4054 7.6885 10.4054 7.93783 10.0461L13.9378 1.37939C14.0073 1.27942 14.048 1.16234 14.0556 1.04086C14.0632 0.919372 14.0373 0.798134 13.9808 0.690314C13.9243 0.582495 13.8394 0.492217 13.7352 0.42929C13.631 0.366364 13.5116 0.333195 13.3898 0.333386Z" fill="#ACACAC"/>
</svg>
