<svg width="21" height="16" viewBox="0 0 21 16" fill="none" xmlns="http://www.w3.org/2000/svg">
<path d="M18.3779 0H2.37793C1.27793 0 0.38793 0.9 0.38793 2L0.37793 14C0.37793 15.1 1.27793 16 2.37793 16H18.3779C19.4779 16 20.3779 15.1 20.3779 14V2C20.3779 0.9 19.4779 0 18.3779 0ZM17.9779 4.25L10.9079 8.67C10.5879 8.87 10.1679 8.87 9.84793 8.67L2.77793 4.25C2.67766 4.19371 2.58985 4.11766 2.51982 4.02645C2.44979 3.93525 2.39899 3.83078 2.37051 3.71937C2.34202 3.60796 2.33643 3.49194 2.35409 3.37831C2.37174 3.26468 2.41227 3.15581 2.47321 3.0583C2.53416 2.96079 2.61425 2.87666 2.70866 2.811C2.80306 2.74533 2.9098 2.69951 3.02243 2.6763C3.13505 2.65309 3.25121 2.65297 3.36388 2.67595C3.47656 2.69893 3.58339 2.74453 3.67793 2.81L10.3779 7L17.0779 2.81C17.1725 2.74453 17.2793 2.69893 17.392 2.67595C17.5046 2.65297 17.6208 2.65309 17.7334 2.6763C17.8461 2.69951 17.9528 2.74533 18.0472 2.811C18.1416 2.87666 18.2217 2.96079 18.2826 3.0583C18.3436 3.15581 18.3841 3.26468 18.4018 3.37831C18.4194 3.49194 18.4138 3.60796 18.3854 3.71937C18.3569 3.83078 18.3061 3.93525 18.236 4.02645C18.166 4.11766 18.0782 4.19371 17.9779 4.25Z" fill="#ACACAC"/>
</svg>
