<svg width="9" height="16" viewBox="0 0 9 16" fill="none" xmlns="http://www.w3.org/2000/svg">
<path d="M4.23646 15.4545V0.90909H5.16828V15.4545H4.23646ZM7.37283 5.27273C7.30464 4.69697 7.02813 4.25 6.54328 3.93182C6.05843 3.61364 5.46373 3.45455 4.75919 3.45455C4.24404 3.45455 3.79328 3.53788 3.40692 3.70455C3.02434 3.87121 2.7251 4.10038 2.50919 4.39205C2.29707 4.68371 2.19101 5.01515 2.19101 5.38636C2.19101 5.69697 2.26487 5.96401 2.4126 6.1875C2.56411 6.4072 2.75729 6.59091 2.99214 6.73864C3.22699 6.88258 3.4732 7.00189 3.73078 7.09659C3.98836 7.1875 4.2251 7.26136 4.44101 7.31818L5.62283 7.63636C5.92586 7.71591 6.26298 7.82576 6.63419 7.96591C7.00919 8.10606 7.36714 8.29735 7.70805 8.53977C8.05275 8.77841 8.33684 9.08523 8.56033 9.46023C8.78381 9.83523 8.89555 10.2955 8.89555 10.8409C8.89555 11.4697 8.73078 12.0379 8.40123 12.5455C8.07548 13.053 7.5982 13.4564 6.96942 13.7557C6.34442 14.0549 5.58495 14.2045 4.69101 14.2045C3.85767 14.2045 3.13608 14.0701 2.52623 13.8011C1.92017 13.5322 1.4429 13.1572 1.09442 12.6761C0.749719 12.1951 0.554643 11.6364 0.509189 11H1.96373C2.00161 11.4394 2.14934 11.803 2.40692 12.0909C2.66828 12.375 2.99783 12.5871 3.39555 12.7273C3.79707 12.8636 4.22889 12.9318 4.69101 12.9318C5.22889 12.9318 5.71184 12.8447 6.13987 12.6705C6.5679 12.4924 6.90692 12.2462 7.15692 11.9318C7.40692 11.6136 7.53192 11.2424 7.53192 10.8182C7.53192 10.4318 7.42396 10.1174 7.20805 9.875C6.99214 9.63258 6.70805 9.43561 6.35578 9.28409C6.00351 9.13258 5.62283 9 5.21373 8.88636L3.78192 8.47727C2.87283 8.21591 2.15313 7.8428 1.62282 7.35795C1.09252 6.87311 0.82737 6.23864 0.82737 5.45455C0.82737 4.80303 1.00351 4.23485 1.35578 3.75C1.71184 3.26136 2.18911 2.88258 2.7876 2.61364C3.38987 2.34091 4.06222 2.20455 4.80464 2.20455C5.55464 2.20455 6.22131 2.33901 6.80464 2.60795C7.38798 2.87311 7.8501 3.23674 8.19101 3.69886C8.5357 4.16098 8.71752 4.68561 8.73646 5.27273H7.37283Z" fill="#1D6D5D"/>
</svg>
