<svg width="20" height="17" viewBox="0 0 20 17" fill="none" xmlns="http://www.w3.org/2000/svg">
<path d="M18 0.384521H2C0.9 0.384521 0.00999999 1.28452 0.00999999 2.38452L0 14.3845C0 15.4845 0.9 16.3845 2 16.3845H18C19.1 16.3845 20 15.4845 20 14.3845V2.38452C20 1.28452 19.1 0.384521 18 0.384521ZM17.6 4.63452L10.53 9.05452C10.21 9.25452 9.79 9.25452 9.47 9.05452L2.4 4.63452C2.29973 4.57823 2.21192 4.50218 2.14189 4.41098C2.07186 4.31977 2.02106 4.2153 1.99258 4.10389C1.96409 3.99249 1.9585 3.87646 1.97616 3.76283C1.99381 3.6492 2.03434 3.54033 2.09528 3.44282C2.15623 3.34531 2.23632 3.26118 2.33073 3.19552C2.42513 3.12986 2.53187 3.08403 2.6445 3.06082C2.75712 3.03761 2.87328 3.03749 2.98595 3.06047C3.09863 3.08345 3.20546 3.12905 3.3 3.19452L10 7.38452L16.7 3.19452C16.7945 3.12905 16.9014 3.08345 17.014 3.06047C17.1267 3.03749 17.2429 3.03761 17.3555 3.06082C17.4681 3.08403 17.5749 3.12986 17.6693 3.19552C17.7637 3.26118 17.8438 3.34531 17.9047 3.44282C17.9657 3.54033 18.0062 3.6492 18.0238 3.76283C18.0415 3.87646 18.0359 3.99249 18.0074 4.10389C17.9789 4.2153 17.9281 4.31977 17.8581 4.41098C17.7881 4.50218 17.7003 4.57823 17.6 4.63452Z" fill="#1D6D5D"/>
</svg>
