<svg width="24" height="25" viewBox="0 0 24 25" fill="none" xmlns="http://www.w3.org/2000/svg">
<path d="M9.71484 12.3845C10.8658 12.3845 11.7148 11.5355 11.7148 10.3845C11.7148 9.23352 10.8658 8.38452 9.71484 8.38452C8.56384 8.38452 7.71484 9.23352 7.71484 10.3845C7.71484 11.5355 8.56284 12.3845 9.71484 12.3845Z" fill="#1D6D5D"/>
<path d="M20 4.38452H4C2.897 4.38452 2 5.22552 2 6.25952V18.5095C2 19.5435 2.897 20.3845 4 20.3845H20C21.103 20.3845 22 19.5435 22 18.5095V6.25952C22 5.22552 21.103 4.38452 20 4.38452ZM20 18.3845L4 18.3735V6.38452L20 6.39552V18.3845Z" fill="#1D6D5D"/>
<path d="M14 9.38452H18V11.3845H14V9.38452ZM15 13.3845H18V15.3845H15V13.3845ZM13.43 15.9205C13.43 14.5465 11.754 13.1345 9.715 13.1345C7.676 13.1345 6 14.5465 6 15.9205V16.3845H13.43V15.9205Z" fill="#1D6D5D"/>
</svg>
