<svg width="17" height="17" viewBox="0 0 17 17" fill="none" xmlns="http://www.w3.org/2000/svg">
<path d="M8.5 0.615723C9.56087 0.615723 10.5783 1.03715 11.3284 1.7873C12.0786 2.53744 12.5 3.55486 12.5 4.61572C12.5 5.67659 12.0786 6.694 11.3284 7.44415C10.5783 8.1943 9.56087 8.61572 8.5 8.61572C7.43913 8.61572 6.42172 8.1943 5.67157 7.44415C4.92143 6.694 4.5 5.67659 4.5 4.61572C4.5 3.55486 4.92143 2.53744 5.67157 1.7873C6.42172 1.03715 7.43913 0.615723 8.5 0.615723ZM8.5 10.6157C12.92 10.6157 16.5 12.4057 16.5 14.6157V16.6157H0.5V14.6157C0.5 12.4057 4.08 10.6157 8.5 10.6157Z" fill="#1D6D5D"/>
</svg>
