<svg width="25" height="24" viewBox="0 0 25 24" fill="none" xmlns="http://www.w3.org/2000/svg">
<path d="M10.2148 12C11.3658 12 12.2148 11.151 12.2148 10C12.2148 8.849 11.3658 8 10.2148 8C9.06384 8 8.21484 8.849 8.21484 10C8.21484 11.151 9.06284 12 10.2148 12Z" fill="#ACACAC"/>
<path d="M20.5 4H4.5C3.397 4 2.5 4.841 2.5 5.875V18.125C2.5 19.159 3.397 20 4.5 20H20.5C21.603 20 22.5 19.159 22.5 18.125V5.875C22.5 4.841 21.603 4 20.5 4ZM20.5 18L4.5 17.989V6L20.5 6.011V18Z" fill="#ACACAC"/>
<path d="M14.5 9H18.5V11H14.5V9ZM15.5 13H18.5V15H15.5V13ZM13.93 15.536C13.93 14.162 12.254 12.75 10.215 12.75C8.176 12.75 6.5 14.162 6.5 15.536V16H13.93V15.536Z" fill="#ACACAC"/>
</svg>
