<svg width="19" height="10" viewBox="0 0 19 10" fill="none" xmlns="http://www.w3.org/2000/svg">
<path d="M17.9256 6.03335C18.1456 6.03335 18.3306 5.95835 18.4806 5.80835C18.6306 5.65835 18.7056 5.47335 18.7056 5.25335V4.59335C18.7056 4.37335 18.6306 4.18835 18.4806 4.03835C18.3306 3.88835 18.1456 3.81335 17.9256 3.81335H5.5656V0.513351C5.5656 0.293351 5.5106 0.163351 5.4006 0.123351C5.2906 0.0833511 5.1656 0.133351 5.0256 0.273352L0.945596 4.38335C0.805596 4.52335 0.735596 4.69835 0.735596 4.90835C0.735596 5.11835 0.805596 5.30335 0.945596 5.46335L5.0256 9.54335C5.1656 9.70335 5.2906 9.76335 5.4006 9.72335C5.5106 9.68335 5.5656 9.55335 5.5656 9.33335V6.03335H17.9256Z" fill="#212529"/>
</svg>
