<svg width="19" height="10" viewBox="0 0 19 10" fill="none" xmlns="http://www.w3.org/2000/svg">
<path d="M0.986635 3.81211C0.766636 3.81211 0.581636 3.88711 0.431637 4.03711C0.281637 4.18711 0.206636 4.37211 0.206636 4.59211V5.25211C0.206636 5.47211 0.281637 5.65711 0.431637 5.80711C0.581636 5.95711 0.766636 6.03211 0.986635 6.03211L13.3466 6.03211V9.33211C13.3466 9.55211 13.4016 9.68211 13.5116 9.72211C13.6216 9.76211 13.7466 9.71211 13.8866 9.57211L17.9666 5.46211C18.1066 5.32211 18.1766 5.14711 18.1766 4.93711C18.1766 4.72711 18.1066 4.54211 17.9666 4.38211L13.8866 0.302107C13.7466 0.142107 13.6216 0.0821074 13.5116 0.122107C13.4016 0.162107 13.3466 0.292107 13.3466 0.512107V3.81211L0.986635 3.81211Z" fill="#212529"/>
</svg>
