<svg width="25" height="25" viewBox="0 0 25 25" fill="none" xmlns="http://www.w3.org/2000/svg">
<path d="M12.375 15.7649C12.2417 15.7649 12.1167 15.7443 12 15.7029C11.8833 15.6616 11.775 15.5906 11.675 15.4899L8.075 11.8899C7.875 11.6899 7.779 11.4566 7.787 11.1899C7.795 10.9233 7.891 10.6899 8.075 10.4899C8.275 10.2899 8.51267 10.1859 8.788 10.1779C9.06334 10.1699 9.30067 10.2656 9.5 10.4649L11.375 12.3399V5.18994C11.375 4.90661 11.471 4.66895 11.663 4.47695C11.855 4.28495 12.0923 4.18928 12.375 4.18994C12.6583 4.18994 12.896 4.28594 13.088 4.47794C13.28 4.66994 13.3757 4.90728 13.375 5.18994V12.3399L15.25 10.4649C15.45 10.2649 15.6877 10.1689 15.963 10.1769C16.2383 10.1849 16.4757 10.2893 16.675 10.4899C16.8583 10.6899 16.9543 10.9233 16.963 11.1899C16.9717 11.4566 16.8757 11.6899 16.675 11.8899L13.075 15.4899C12.975 15.5899 12.8667 15.6609 12.75 15.7029C12.6333 15.7449 12.5083 15.7656 12.375 15.7649ZM6.375 20.1899C5.825 20.1899 5.354 19.9939 4.962 19.6019C4.57 19.2099 4.37434 18.7393 4.375 18.1899V16.1899C4.375 15.9066 4.471 15.6689 4.663 15.4769C4.855 15.2849 5.09233 15.1893 5.375 15.1899C5.65833 15.1899 5.896 15.2859 6.088 15.4779C6.28 15.6699 6.37567 15.9073 6.375 16.1899V18.1899H18.375V16.1899C18.375 15.9066 18.471 15.6689 18.663 15.4769C18.855 15.2849 19.0923 15.1893 19.375 15.1899C19.6583 15.1899 19.896 15.2859 20.088 15.4779C20.28 15.6699 20.3757 15.9073 20.375 16.1899V18.1899C20.375 18.7399 20.179 19.2109 19.787 19.6029C19.395 19.9949 18.9243 20.1906 18.375 20.1899H6.375Z" fill="black"/>
</svg>
