<svg width="17" height="16" viewBox="0 0 17 16" fill="none" xmlns="http://www.w3.org/2000/svg">
<path d="M8.37793 0C9.4388 0 10.4562 0.421427 11.2064 1.17157C11.9565 1.92172 12.3779 2.93913 12.3779 4C12.3779 5.06087 11.9565 6.07828 11.2064 6.82843C10.4562 7.57857 9.4388 8 8.37793 8C7.31706 8 6.29965 7.57857 5.5495 6.82843C4.79936 6.07828 4.37793 5.06087 4.37793 4C4.37793 2.93913 4.79936 1.92172 5.5495 1.17157C6.29965 0.421427 7.31706 0 8.37793 0ZM8.37793 10C12.7979 10 16.3779 11.79 16.3779 14V16H0.37793V14C0.37793 11.79 3.95793 10 8.37793 10Z" fill="#ACACAC"/>
</svg>
